HIERARCHY
ROOT hip
{
  OFFSET 0 0 0
  CHANNELS 6 Xposition Yposition Zposition Zrotation Yrotation Xrotation
  JOINT abdomen
  {
    OFFSET 0 20.6881 -0.73152
    CHANNELS 3 Zrotation Xrotation Yrotation
    JOINT chest
    {
      OFFSET 0 11.7043 -0.48768
      CHANNELS 3 Zrotation Xrotation Yrotation
      JOINT neck
      {
        OFFSET 0 22.1894 -2.19456
        CHANNELS 3 Zrotation Xrotation Yrotation
        JOINT head
        {
          OFFSET -0.24384 7.07133 1.2192
          CHANNELS 3 Zrotation Xrotation Yrotation
          JOINT leftEye
          {
            OFFSET 4.14528 8.04674 8.04672
            CHANNELS 3 Zrotation Xrotation Yrotation
            End Site
            {
              OFFSET 1 0 0
            }
          }
          JOINT rightEye
          {
            OFFSET -3.6576 8.04674 8.04672
            CHANNELS 3 Zrotation Xrotation Yrotation
            End Site
            {
              OFFSET 1 0 0
            }
          }
        }
      }
      JOINT rCollar
      {
        OFFSET -2.68224 19.2634 -4.8768
        CHANNELS 3 Zrotation Xrotation Yrotation
        JOINT rShldr
        {
          OFFSET -8.77824 -1.95073 1.46304
          CHANNELS 3 Zrotation Xrotation Yrotation
          JOINT rForeArm
          {
            OFFSET -28.1742 -1.7115 0.48768
            CHANNELS 3 Zrotation Xrotation Yrotation
            JOINT rHand
            {
              OFFSET -22.5879 0.773209 7.07136
              CHANNELS 3 Zrotation Xrotation Yrotation
              JOINT rThumb1
              {
                OFFSET -1.2192 -0.487915 3.41376
                CHANNELS 3 Zrotation Xrotation Yrotation
                JOINT rThumb2
                {
                  OFFSET -3.37035 -0.52449 3.41376
                  CHANNELS 3 Zrotation Xrotation Yrotation
                  End Site
                  {
                    OFFSET -1.78271 -1.18214 1.43049
                  }
                }
              }
              JOINT rIndex1
              {
                OFFSET -7.75947 0.938293 5.60832
                CHANNELS 3 Zrotation Xrotation Yrotation
                JOINT rIndex2
                {
                  OFFSET -2.54057 -0.884171 1.56538
                  CHANNELS 3 Zrotation Xrotation Yrotation
                  End Site
                  {
                    OFFSET -1.62519 -0.234802 1.16502
                  }
                }
              }
              JOINT rMid1
              {
                OFFSET -8.24714 1.18213 3.41376
                CHANNELS 3 Zrotation Xrotation Yrotation
                JOINT rMid2
                {
                  OFFSET -3.10165 -0.590103 1.0647
                  CHANNELS 3 Zrotation Xrotation Yrotation
                  End Site
                  {
                    OFFSET -2.48547 -0.328903 0.83742
                  }
                }
              }
              JOINT rRing1
              {
                OFFSET -8.82822 0.546677 1.51678
                CHANNELS 3 Zrotation Xrotation Yrotation
                JOINT rRing2
                {
                  OFFSET -2.60934 -0.819778 -0.0198488
                  CHANNELS 3 Zrotation Xrotation Yrotation
                  End Site
                  {
                    OFFSET -2.33842 -0.294052 0.168128
                  }
                }
              }
              JOINT rPinky1
              {
                OFFSET -8.27202 -0.0477905 -0.4584
                CHANNELS 3 Zrotation Xrotation Yrotation
                JOINT rPinky2
                {
                  OFFSET -1.82734 -0.647385 -0.700984
                  CHANNELS 3 Zrotation Xrotation Yrotation
                  End Site
                  {
                    OFFSET -1.69225 -0.51767 -0.607171
                  }
                }
              }
            }
          }
        }
      }
      JOINT lCollar
      {
        OFFSET 2.68224 19.2634 -4.8768
        CHANNELS 3 Zrotation Xrotation Yrotation
        JOINT lShldr
        {
          OFFSET 8.77824 -1.95073 1.46304
          CHANNELS 3 Zrotation Xrotation Yrotation
          JOINT lForeArm
          {
            OFFSET 28.1742 -1.7115 0.48768
            CHANNELS 3 Zrotation Xrotation Yrotation
            JOINT lHand
            {
              OFFSET 22.5879 0.773209 7.07136
              CHANNELS 3 Zrotation Xrotation Yrotation
              JOINT lThumb1
              {
                OFFSET 1.2192 -0.487915 3.41376
                CHANNELS 3 Zrotation Xrotation Yrotation
                JOINT lThumb2
                {
                  OFFSET 3.37035 -0.52449 3.41376
                  CHANNELS 3 Zrotation Xrotation Yrotation
                  End Site
                  {
                    OFFSET 1.78271 -1.18214 1.43049
                  }
                }
              }
              JOINT lIndex1
              {
                OFFSET 7.75947 0.938293 5.60832
                CHANNELS 3 Zrotation Xrotation Yrotation
                JOINT lIndex2
                {
                  OFFSET 2.54057 -0.884171 1.56538
                  CHANNELS 3 Zrotation Xrotation Yrotation
                  End Site
                  {
                    OFFSET 1.62519 -0.234802 1.16502
                  }
                }
              }
              JOINT lMid1
              {
                OFFSET 8.24714 1.18213 3.41376
                CHANNELS 3 Zrotation Xrotation Yrotation
                JOINT lMid2
                {
                  OFFSET 3.10165 -0.590103 1.0647
                  CHANNELS 3 Zrotation Xrotation Yrotation
                  End Site
                  {
                    OFFSET 2.48547 -0.328903 0.83742
                  }
                }
              }
              JOINT lRing1
              {
                OFFSET 8.82822 0.546677 1.51678
                CHANNELS 3 Zrotation Xrotation Yrotation
                JOINT lRing2
                {
                  OFFSET 2.60934 -0.819778 -0.0198488
                  CHANNELS 3 Zrotation Xrotation Yrotation
                  End Site
                  {
                    OFFSET 2.33842 -0.294052 0.168128
                  }
                }
              }
              JOINT lPinky1
              {
                OFFSET 8.27202 -0.0477905 -0.4584
                CHANNELS 3 Zrotation Xrotation Yrotation
                JOINT lPinky2
                {
                  OFFSET 1.82734 -0.647385 -0.700984
                  CHANNELS 3 Zrotation Xrotation Yrotation
                  End Site
                  {
                    OFFSET 1.69225 -0.51767 -0.607171
                  }
                }
              }
            }
          }
        }
      }
    }
  }
  JOINT rButtock
  {
    OFFSET -8.77824 4.35084 1.2192
    CHANNELS 3 Zrotation Xrotation Yrotation
    JOINT rThigh
    {
      OFFSET 0 -1.70687 -2.19456
      CHANNELS 3 Zrotation Xrotation Yrotation
      JOINT rShin
      {
        OFFSET 0 -36.8199 0.73152
        CHANNELS 3 Zrotation Xrotation Yrotation
        JOINT rFoot
        {
          OFFSET 0.73152 -45.1104 -5.12064
          CHANNELS 3 Zrotation Xrotation Yrotation
          End Site
          {
            OFFSET -1.1221 -3.69964 12.103
          }
        }
      }
    }
  }
  JOINT lButtock
  {
    OFFSET 8.77824 4.35084 1.2192
    CHANNELS 3 Zrotation Xrotation Yrotation
    JOINT lThigh
    {
      OFFSET 0 -1.70687 -2.19456
      CHANNELS 3 Zrotation Xrotation Yrotation
      JOINT lShin
      {
        OFFSET 0 -36.8199 0.73152
        CHANNELS 3 Zrotation Xrotation Yrotation
        JOINT lFoot
        {
          OFFSET -0.73152 -45.1104 -5.12064
          CHANNELS 3 Zrotation Xrotation Yrotation
          End Site
          {
            OFFSET 1.1221 -3.69964 12.103
          }
        }
      }
    }
  }
}
MOTION
Frames:	4
Frame Time:	0.00833333
-2.81744 82.4668 49.788 -9.2027 5.7554 9.3042 5.40842 -8.77957 7.15178 -3.64716 -12.2262 1.37094 -6.00703 9.50623 -12.4153 20.3617 -17.7561 -20.9134 -0.0 0.0 0.0 -0.0 0.0 0.0 -2.22625e-13 -1.47821e-13 1.7271e-13 88.8458 -28.0849 58.8885 -16.0303 -8.72387 29.7208 -161.718 38.0629 173.592 3.95103e-10 -1.8736e-09 5.02443e-10 7.01664e-10 -3.24668e-09 7.75819e-10 3.95106e-10 -1.87361e-09 5.02425e-10 7.73091 5.47488 0.417314 3.95103e-10 -1.8736e-09 5.02437e-10 2.90554 0.965183 0.102902 3.95113e-10 -1.8736e-09 5.02434e-10 10.2786 0.731801 0.0259123 3.95102e-10 -1.8736e-09 5.02448e-10 2.22167 -0.733487 -0.20892 -2.22684e-13 -1.47822e-13 1.72497e-13 -81.4891 -2.04367 1.05879 20.2745 -13.3607 -39.351 0.787936 24.2172 -3.62792 -1.92345e-09 -3.9608e-09 1.4442e-11 -3.31997e-09 -6.85312e-09 6.25277e-11 -1.92346e-09 -3.9608e-09 1.44544e-11 -7.73091 5.47488 -0.417314 -1.92345e-09 -3.9608e-09 1.44457e-11 -2.90554 0.965183 -0.102902 -1.92346e-09 -3.9608e-09 1.44387e-11 -10.2786 0.731801 -0.0259123 -1.92346e-09 -3.9608e-09 1.4433e-11 -2.22167 -0.733487 0.20892 -2.03217e-16 0.0 -3.88251e-19 3.60941 -5.9672 20.1912 0.0265726 0.17437 0.352838 -6.08861 -6.93403 -22.9001 2.03217e-16 0.0 3.88251e-19 3.96174 -10.8688 -39.2103 0.0155216 12.7709 -0.0446681 10.4065 -12.2488 48.4576
-2.79068 82.4719 49.941 -9.2048 6.3584 9.0534 5.07088 -8.77823 6.94267 -3.35761 -12.1502 1.35007 -6.06672 9.41373 -12.5204 20.6945 -17.986 -21.0322 -0.0 0.0 0.0 -0.0 0.0 0.0 -2.20999e-13 -1.89243e-13 1.95704e-13 92.6313 -32.9155 59.6386 -15.6739 -8.3877 28.9872 -161.655 39.1924 173.42 3.25102e-10 -1.66053e-09 4.23367e-10 5.81484e-10 -2.8628e-09 6.54949e-10 3.25104e-10 -1.66054e-09 4.23348e-10 7.73091 5.47488 0.417314 3.25102e-10 -1.66053e-09 4.23364e-10 2.90554 0.965183 0.102902 3.25112e-10 -1.66053e-09 4.23359e-10 10.2786 0.731801 0.0259123 3.25101e-10 -1.66053e-09 4.23373e-10 2.22167 -0.733487 -0.20892 -2.21062e-13 -1.89243e-13 1.95505e-13 -81.0953 -2.97427 2.63307 20.2466 -13.3251 -39.2819 0.715634 23.2996 -3.46996 -2.49253e-09 -4.67228e-09 -4.18723e-10 -4.31253e-09 -8.10508e-09 -6.75845e-10 -2.49253e-09 -4.67228e-09 -4.18714e-10 -7.73091 5.47488 -0.417314 -2.49253e-09 -4.67228e-09 -4.1872e-10 -2.90554 0.965183 -0.102902 -2.49254e-09 -4.67228e-09 -4.18727e-10 -10.2786 0.731801 -0.0259123 -2.49253e-09 -4.67228e-09 -4.18733e-10 -2.22167 -0.733487 0.20892 -2.03217e-16 0.0 -3.88251e-19 3.73512 -5.6618 20.0754 0.0263252 0.153411 0.349228 -6.22337 -7.02827 -23.3763 2.03217e-16 0.0 3.88251e-19 3.97851 -10.6535 -39.6478 0.015142 12.6933 -0.0435512 10.1891 -12.076 48.3552
-2.77733 82.4686 50.0842 -9.2198 6.8633 8.8447 4.76271 -8.80313 6.62831 -3.1328 -12.0508 1.29166 -6.06511 9.21316 -12.6192 20.7933 -18.1632 -21.1799 -0.0 0.0 0.0 -0.0 0.0 0.0 -1.72828e-13 -1.71079e-13 1.94203e-13 96.0604 -37.258 60.3314 -15.5729 -8.27621 28.8268 -161.676 38.7699 173.485 2.71011e-10 -1.19542e-09 2.02465e-10 4.70134e-10 -2.03805e-09 3.02825e-10 2.71014e-10 -1.19542e-09 2.02447e-10 7.73091 5.47488 0.417314 2.71011e-10 -1.19541e-09 2.02463e-10 2.90554 0.965183 0.102902 2.71021e-10 -1.19541e-09 2.02459e-10 10.2786 0.731801 0.0259123 2.71011e-10 -1.19542e-09 2.02472e-10 2.22167 -0.733487 -0.20892 -1.72865e-13 -1.7108e-13 1.94017e-13 -80.4771 -3.91473 4.5863 20.3325 -13.4367 -39.4898 0.618699 21.7083 -3.20564 -2.65129e-09 -4.84157e-09 -3.69059e-10 -4.58756e-09 -8.40229e-09 -5.88988e-10 -2.65129e-09 -4.84157e-09 -3.69053e-10 -7.73091 5.47488 -0.417314 -2.65129e-09 -4.84157e-09 -3.69058e-10 -2.90554 0.965183 -0.102902 -2.6513e-09 -4.84157e-09 -3.69064e-10 -10.2786 0.731801 -0.0259123 -2.65129e-09 -4.84157e-09 -3.69071e-10 -2.22167 -0.733487 0.20892 -2.03217e-16 0.0 -3.88251e-19 3.87158 -5.43152 19.9888 0.0256583 0.126623 0.346372 -6.33381 -7.0884 -23.7532 2.03217e-16 0.0 3.88251e-19 4.08989 -10.5619 -39.7609 0.015311 12.6488 -0.0465936 9.90259 -11.8801 48.0654
-2.79638 82.4497 50.2079 -9.284 7.2125 8.755 4.44731 -8.84086 6.27283 -2.94907 -11.9243 1.21765 -6.01928 8.93102 -12.7071 20.7519 -18.3086 -21.3301 -0.0 0.0 0.0 -0.0 0.0 0.0 -8.9581e-14 -1.16883e-13 1.77987e-13 98.5446 -41.0606 60.5026 -15.6894 -8.3674 29.1087 -161.699 38.131 173.577 2.17828e-10 -5.30065e-10 -1.26101e-10 3.47845e-10 -8.61955e-10 -2.23896e-10 2.17831e-10 -5.30064e-10 -1.26117e-10 7.73091 5.47488 0.417314 2.17828e-10 -5.30062e-10 -1.26104e-10 2.90554 0.965183 0.102902 2.17836e-10 -5.3006e-10 -1.26106e-10 10.2786 0.731801 0.0259123 2.17829e-10 -5.30064e-10 -1.26096e-10 2.22167 -0.733487 -0.20892 -8.95733e-14 -1.16888e-13 1.77816e-13 -79.6437 -4.90869 6.87487 20.4946 -13.648 -39.8905 0.521615 19.6604 -2.87818 -2.58669e-09 -4.69675e-09 -6.62128e-11 -4.47243e-09 -8.14815e-09 -6.96998e-11 -2.58669e-09 -4.69675e-09 -6.62092e-11 -7.73091 5.47488 -0.417314 -2.58669e-09 -4.69675e-09 -6.62148e-11 -2.90554 0.965183 -0.102902 -2.5867e-09 -4.69674e-09 -6.62187e-11 -10.2786 0.731801 -0.0259123 -2.58669e-09 -4.69674e-09 -6.62285e-11 -2.22167 -0.733487 0.20892 -2.03217e-16 0.0 -3.88251e-19 4.00194 -5.25558 19.9238 0.0246368 0.110906 0.34412 -6.41845 -7.12394 -24.0405 2.03217e-16 0.0 3.88251e-19 4.24385 -10.5361 -39.6446 0.0159009 12.6309 -0.0523532 9.58992 -11.6787 47.6698
